<?xml version="1.0" encoding="utf-8"?>
<!-- Generator: Adobe Illustrator 16.0.0, SVG Export Plug-In . SVG Version: 6.00 Build 0)  -->
<!DOCTYPE svg PUBLIC "-//W3C//DTD SVG 1.1//EN" "http://www.w3.org/Graphics/SVG/1.1/DTD/svg11.dtd">
<svg version="1.1" id="Layer_1" xmlns="http://www.w3.org/2000/svg" xmlns:xlink="http://www.w3.org/1999/xlink" x="0px" y="0px"
	 width="128px" height="128px" viewBox="0 0 128 128" enable-background="new 0 0 128 128" xml:space="preserve">
<g>
	<g>
		<g>
			<g>
				<path fill="#282D33" d="M119.494,124.536H8.507c-4.691,0-8.507-3.858-8.507-8.602V48.83c0-4.743,3.816-8.602,8.507-8.602H43.18
					v4H8.507C6.022,44.229,4,46.293,4,48.83v67.104c0,2.537,2.022,4.602,4.507,4.602h110.987c2.484,0,4.506-2.064,4.506-4.602
					V48.831c0-2.537-2.021-4.602-4.506-4.602v-4c4.69,0,8.506,3.858,8.506,8.602v67.104
					C128,120.678,124.185,124.536,119.494,124.536z"/>
			</g>
			<g>
				<rect x="10.542" y="85.005" fill="#282D33" width="22.024" height="4"/>
			</g>
			<g>
				<rect x="10.542" y="99.972" fill="#282D33" width="46.986" height="4"/>
			</g>
			<g>
				<rect x="38.115" y="85.005" fill="#282D33" width="22.025" height="4"/>
			</g>
			<g>
				<rect x="65.693" y="85.005" fill="#282D33" width="22.027" height="4"/>
			</g>
			<g>
				<rect x="93.273" y="85.005" fill="#282D33" width="22.024" height="4"/>
			</g>
			<g>
				<path fill="#282D33" d="M34.455,75.824H9.415V56.976h25.04V75.824z M13.415,71.824h17.04V60.976h-17.04V71.824z"/>
			</g>
		</g>
	</g>
	<g>
		<path fill="#282D33" d="M81.896,77.06l-0.568-0.168c-15.104-4.475-32.441-12.591-32.441-35.837V12.803l2.312,0.365
			c3.901,0.616,8.246,0.516,12.533-0.292c6.819-1.286,12.926-4.206,16.754-8.011l1.41-1.401l1.41,1.401
			c3.828,3.805,9.935,6.725,16.754,8.011c4.285,0.808,8.634,0.907,12.531,0.292l2.313-0.365v28.252
			c0,23.244-17.336,31.361-32.439,35.837L81.896,77.06z M52.887,17.406v23.648c0,16.141,8.683,25.684,29.009,31.831
			c20.325-6.148,29.008-15.691,29.008-31.831V17.406c-3.718,0.343-7.672,0.138-11.585-0.6c-6.815-1.285-13.049-4.095-17.423-7.811
			c-4.374,3.716-10.607,6.525-17.424,7.811C60.56,17.545,56.609,17.748,52.887,17.406z"/>
	</g>
	<g>
		<path fill="#282D33" d="M81.896,67.207l-0.622-0.204C64.878,61.639,58.19,54.121,58.19,41.055V23.012l1.846-0.143
			c1.791-0.138,3.605-0.379,5.394-0.715c5.648-1.065,10.982-3.063,15.425-5.775l1.043-0.637l1.043,0.638
			c4.431,2.711,9.762,4.708,15.418,5.774c1.789,0.336,3.604,0.577,5.397,0.715l1.846,0.143v18.043
			c0,13.064-6.688,20.583-23.083,25.948L81.896,67.207z M62.19,26.683v14.372c0,11.137,5.355,17.128,19.707,21.941
			c14.351-4.814,19.705-10.806,19.705-21.941V26.683c-1.33-0.149-2.663-0.35-3.982-0.598c-5.695-1.073-11.104-3.028-15.724-5.675
			c-4.629,2.647-10.039,4.603-15.725,5.675C64.852,26.333,63.519,26.533,62.19,26.683z"/>
	</g>
	<g>
		<polygon fill="#282D33" points="81.054,46.41 74.594,42.182 76.785,38.835 80.177,41.056 86.533,32.975 89.678,35.447 		"/>
	</g>
</g>
</svg>
